<?xml version="1.0" encoding="UTF-8" standalone="no"?>
<!DOCTYPE svg PUBLIC "-//W3C//DTD SVG 1.0//EN" "http://www.w3.org/TR/2001/REC-SVG-20010904/DTD/svg10.dtd">
<!-- Created with Inkscape (http://www.inkscape.org/) -->
<svg
   xmlns:svg="http://www.w3.org/2000/svg"
   xmlns="http://www.w3.org/2000/svg"
   version="1.0"
   width="800"
   height="300"
   id="svg2">
  <defs
     id="defs4" />
  <g
     id="layer1">
    <path
       d="M 482.29716,37.526696 C 474.79366,37.440293 467.96716,41.853381 464.96561,48.730934 L 381.98422,231.70429 C 378.90309,237.82637 379.41087,245.13221 383.3264,250.75733 C 387.2419,256.38246 393.93446,259.42812 400.74549,258.66449 C 407.5565,257.90085 413.40364,253.46268 415.97625,247.11012 L 498.98681,64.13676 C 501.6859,58.386801 501.28224,51.661131 497.90723,46.280007 C 494.53223,40.898882 488.64867,37.600178 482.29716,37.526696 z M 59.77487,41.465686 C 38.257319,41.465686 20.355796,57.295602 20.355796,78.813144 L 156.70319,78.813144 C 163.4376,78.908389 169.70607,75.380632 173.10106,69.563812 C 176.49607,63.746983 176.49607,56.531837 173.10106,50.715017 C 169.70607,44.898207 163.43761,41.370441 156.70319,41.465686 L 59.77487,41.465686 z M 214.12491,41.465686 C 207.39049,41.370431 201.12204,44.898198 197.72704,50.715017 C 194.33203,56.531837 194.33204,63.746993 197.72704,69.563812 C 201.12203,75.380642 207.39049,78.908389 214.12491,78.813144 L 373.52269,78.813144 C 380.25711,78.90838 386.52556,75.380632 389.92056,69.563812 C 393.31557,63.747002 393.31556,56.531837 389.92056,50.715017 C 386.52557,44.898198 380.25711,41.370441 373.52269,41.465686 L 214.12491,41.465686 z M 656.69228,41.465686 C 635.17474,41.465686 617.27321,57.295602 617.27321,78.813144 L 753.6206,78.813144 C 760.35502,78.908389 766.62348,75.380632 770.01847,69.563812 C 773.41349,63.746983 773.41348,56.531837 770.01847,50.715017 C 766.62349,44.898207 760.35502,41.370441 753.6206,41.465686 L 656.69228,41.465686 z M 39.408835,84.648684 C 28.735968,84.648684 20.093197,93.320633 20.093197,103.9935 C 20.093197,114.66636 28.735968,123.33831 39.408835,123.33831 C 50.081702,123.33831 58.753651,114.66636 58.753651,103.9935 C 58.753651,93.320633 50.081692,84.648684 39.408835,84.648684 z M 293.80921,84.648684 C 283.13634,84.648684 274.4644,93.320633 274.4644,103.9935 C 274.4644,114.66636 283.13635,123.33831 293.80921,123.33831 C 304.48208,123.33831 313.15404,114.66636 313.15403,103.9935 C 313.15403,93.320633 304.48209,84.648684 293.80921,84.648684 z M 507.91518,84.648684 C 497.24232,84.648684 488.57038,93.320633 488.57037,103.9935 C 488.57037,114.66636 497.24232,123.33831 507.91518,123.33831 C 518.58805,123.33831 527.26001,114.66636 527.26,103.9935 C 527.26,93.320633 518.58806,84.648684 507.91518,84.648684 z M 636.61802,84.648684 C 625.94516,84.648684 617.27321,93.320633 617.27321,103.9935 C 617.27321,114.66636 625.94516,123.33831 636.61802,123.33831 C 647.29089,123.33831 655.96284,114.66636 655.96284,103.9935 C 655.96284,93.320633 647.29089,84.648684 636.61802,84.648684 z M 525.18838,126.60621 C 518.92953,126.61842 513.08677,129.75812 509.63667,134.98021 C 506.18655,140.20231 505.58788,146.8124 508.03189,152.57437 L 546.25468,246.43903 C 550.13825,255.99487 561.03304,260.59316 570.58888,256.70958 C 580.14473,252.82602 584.74301,241.93122 580.85944,232.37538 L 542.60747,138.48154 C 539.80403,131.31097 532.88749,126.59567 525.18838,126.60621 z M 293.51743,129.20303 C 283.21568,129.36401 274.99039,137.83737 275.13548,148.13936 L 275.13548,239.14461 C 275.04024,245.87903 278.56799,252.14748 284.38481,255.54247 C 290.20164,258.93749 297.41679,258.93748 303.23361,255.54247 C 309.05042,252.14749 312.57819,245.87903 312.48294,239.14461 L 312.48294,148.13936 C 312.55405,143.09059 310.57066,138.22687 306.99753,134.65926 C 303.42442,131.09163 298.56609,129.12414 293.51743,129.20303 z M 39.029525,130.60356 C 32.295106,130.50831 26.026652,134.03607 22.631657,139.85289 C 19.236651,145.66972 19.236651,152.88486 22.631657,158.70168 C 26.026652,164.5185 32.295106,168.04626 39.029525,167.95102 L 156.70319,167.95102 C 163.43761,168.04626 169.70607,164.5185 173.10106,158.70168 C 176.49608,152.88486 176.49607,145.66971 173.10106,139.85289 C 169.70607,134.03608 163.43761,130.50831 156.70319,130.60356 L 39.029525,130.60356 z M 617.27321,130.60356 C 617.27321,152.1211 635.17471,167.95102 656.69228,167.95102 L 772.58611,167.95102 C 772.58611,146.43347 754.68449,130.60356 733.16704,130.60356 L 617.27321,130.60356 z M 39.408835,173.78656 C 28.735968,173.78656 20.093197,182.4585 20.093197,193.13137 C 20.093197,203.80424 28.735968,212.44703 39.408835,212.44701 C 50.081702,212.44701 58.753651,203.80423 58.753651,193.13137 C 58.753651,182.4585 50.081692,173.78655 39.408835,173.78656 z M 753.24129,173.78656 C 742.56843,173.78656 733.92566,182.4585 733.92566,193.13137 C 733.92566,203.80424 742.56843,212.44703 753.24129,212.44701 C 763.91416,212.44701 772.58611,203.80423 772.58611,193.13137 C 772.58611,182.4585 763.91416,173.78655 753.24129,173.78656 z M 22.369057,217.90324 C 22.369057,239.42078 40.27059,255.2507 61.788131,255.2507 L 158.71645,255.2507 C 165.45087,255.34594 171.71934,251.81818 175.11432,246.00137 C 178.50933,240.18455 178.50934,232.9694 175.11432,227.15257 C 171.71933,221.33575 165.45087,217.80799 158.71645,217.90324 L 22.369057,217.90324 z M 636.23871,217.90324 C 629.50428,217.80799 623.23584,221.33575 619.84084,227.15257 C 616.44582,232.9694 616.44584,240.18455 619.84084,246.00137 C 623.23582,251.81818 629.50429,255.34594 636.23871,255.2507 L 733.16704,255.2507 C 754.68457,255.2507 772.58611,239.42078 772.58611,217.90324 L 636.23871,217.90324 z"
       id="rect3346"
       style="opacity:1;fill:#2a39b3;fill-opacity:1;fill-rule:nonzero;stroke:none;stroke-width:40;stroke-linecap:square;stroke-linejoin:miter;stroke-miterlimit:4;stroke-dasharray:none;stroke-opacity:1" />
  </g>
</svg>
